<?xml version="1.0" encoding="utf-8"?>
<svg 
version="1.1" 
id="woot-log" 
xmlns="http://www.w3.org/2000/svg" 
xmlns:xlink="http://www.w3.org/1999/xlink"
viewBox="0 0 623.62 226.77">
<title>logo-dark</title>
<g>
	<path style="fill:#FFFFFF;" d="M314.68,140.91c-2.16,0-4.06,1.12-5.17,2.8H72.81v6.74h236.71c1.1,1.69,3,2.8,5.17,2.8
		c3.41,0,6.17-2.76,6.17-6.17S318.09,140.91,314.68,140.91z"/>
	<path style="fill:#FFFFFF;" d="M163.05,84.24h42.26V77.5h-42.35c-7.86,0-14.25,6.43-14.25,14.34v42.26h6.65v-27.84h39.11v-6.73h-39.03v-7.69
		C155.45,87.65,158.86,84.24,163.05,84.24z"/>
	<path style="fill:#FFFFFF;" d="M273.12,126.33l-10.01-19.91l2.95-0.31c1.41-0.15,2.76-0.52,4.02-1.12c5.08-2.35,8.36-7.47,8.36-13.06
		c0-3.79-1.49-7.41-4.19-10.19c-2.67-2.67-6.25-4.15-10.06-4.15h-36.28v56.6h6.73v-27.93h12.89c4.49,0,8.58,2.31,10.95,6.19
		l0.08,0.15l0.26,0.52l10.78,21.07h7.53L273.12,126.33z M234.65,99.63v-15.3h29.55c2.78,0,4.55,1.36,5.35,2.16
		c0.68,0.68,2.25,2.56,2.25,5.44c0,2.99-1.76,5.68-4.48,6.89c-0.95,0.47-2.03,0.71-3.12,0.71L234.65,99.63z"/>
	<rect x="311.31" y="77.5" style="fill:#FFFFFF;" width="6.73" height="56.6"/>
	<path style="fill:#FFFFFF;" d="M379.04,77.59L379.04,77.59l-28.21-0.08v56.59h28.3c7.53,0,14.59-2.95,19.87-8.32
		c0.61-0.61,1.17-1.17,1.64-1.72c4.32-5.07,6.7-11.56,6.7-18.26C407.34,90.25,394.64,77.59,379.04,77.59z M379.04,127.46h-21.57
		V84.32h21.57c11.89,0,21.57,9.67,21.57,21.57C400.6,117.78,390.93,127.46,379.04,127.46z"/>
	<polygon style="fill:#FFFFFF;" points="471.68,126.25 448.09,79.97 424.51,126.25 420.49,134.1 428.02,134.1 433,124.38 448.09,94.78 
		468.17,134.1 475.7,134.1 	"/>
	<polygon style="fill:#FFFFFF;" points="548.79,77.59 540.19,77.59 522.53,100.5 504.87,77.59 496.36,77.59 518.27,105.98 496.53,134.19 
		505.04,134.19 522.62,111.47 540.19,134.19 548.7,134.19 526.87,105.98 	"/>
	<polygon style="fill:#FFFFFF;" points="123.99,126.25 100.41,79.97 76.83,126.25 72.81,134.1 80.33,134.1 85.31,124.38 100.41,94.78 
		120.48,134.1 128.01,134.1 	"/>
	<text transform="matrix(1 0 0 1 326.0058 153.251)" fill="#FFFFFF" font-family="CenturyGothic" font-size="17.1758px" letter-spacing="1">Rooted Deep in Crypto</text>
</g>
</svg>
