<?xml version="1.0" encoding="UTF-8"?>
<svg version="1.1" xmlns="http://www.w3.org/2000/svg" width="512" height="512">
<title>woot-log</title>
<path d="M0 0 C1.48358294 -0.00302486 2.96716431 -0.00691601 4.45074296 -0.01159257 C8.50571459 -0.0218384 12.56059747 -0.01969948 16.61557627 -0.01541197 C20.99745025 -0.01293849 25.37930322 -0.02196668 29.76116943 -0.02944946 C38.33778344 -0.04218172 46.91436612 -0.04399195 55.49098799 -0.0416492 C62.46527086 -0.03986405 69.43954425 -0.04161991 76.41382599 -0.04587364 C77.90442553 -0.04676643 77.90442553 -0.04676643 79.42513819 -0.04767724 C81.44412261 -0.04888904 83.46310704 -0.05010317 85.48209146 -0.05131962 C104.40567986 -0.06218972 123.32925043 -0.06003532 142.25283983 -0.05393478 C159.54719347 -0.04876744 176.84149075 -0.06001719 194.13583323 -0.07903299 C211.91131781 -0.09842735 229.68677575 -0.10666451 247.46227098 -0.10290974 C257.43472285 -0.10099995 267.40712678 -0.1034635 277.37957001 -0.11762428 C285.87037477 -0.12955949 294.36110207 -0.13091909 302.85190794 -0.11883412 C307.17973164 -0.11296013 311.50741383 -0.11180478 315.83522797 -0.12383652 C319.80542576 -0.13474527 323.77536472 -0.13153321 327.74555066 -0.11757483 C329.1734859 -0.11494154 330.60144176 -0.11725092 332.02935669 -0.1253107 C355.72571908 -0.24966382 377.99500504 7.67282374 395.22467041 24.26069641 C409.48153528 39.44970317 419.33184844 59.63716949 419.35609818 80.70238495 C419.35993932 81.96109421 419.36378047 83.21980348 419.36773801 84.51665545 C419.36695791 85.9006148 419.36607915 87.28457409 419.3651123 88.66853333 C419.36769822 90.14881324 419.37071201 91.62909245 419.37411571 93.10937071 C419.38216252 97.16916615 419.38397398 101.22894389 419.38471317 105.28874636 C419.3865678 109.67068738 419.39411725 114.05261931 419.40084839 118.43455505 C419.41441632 128.01335335 419.42045419 137.59214745 419.42485905 147.17095375 C419.42762439 153.15606398 419.4318623 159.1411726 419.43636322 165.12628174 C419.44855447 181.70850269 419.45885368 198.29072236 419.46223831 214.87294769 C419.46245788 215.93376847 419.46267744 216.99458924 419.46290366 218.08755609 C419.46312194 219.15086878 419.46334022 220.21418147 419.46356511 221.30971575 C419.46400857 223.46427441 419.46445514 225.61883307 419.46490479 227.77339172 C419.46512621 228.84211987 419.46534764 229.91084803 419.46557578 231.01196188 C419.46952153 248.3187607 419.4869694 265.62551736 419.51026431 282.93229991 C419.53400667 300.71560078 419.5464415 318.49888051 419.54760623 336.28219748 C419.54852143 346.26087841 419.55423456 356.23950441 419.57242584 366.21817017 C419.58786587 374.71743128 419.59292437 383.21662049 419.58468774 391.71589297 C419.58079487 396.0478741 419.58164376 400.37971062 419.59574509 404.71167374 C419.60856636 408.6869718 419.60721518 412.6620178 419.59515437 416.63731593 C419.59321149 418.06603412 419.59620965 419.49477069 419.60499874 420.92346317 C419.67718108 433.4632887 418.4125074 446.03945721 412.97467041 457.51069641 C412.67166016 458.17271057 412.3686499 458.83472473 412.05645752 459.51679993 C401.66144603 481.66292748 384.28497204 496.24276251 361.56451416 504.60835266 C353.98587996 507.0359519 346.76384359 508.38293681 338.78298187 508.39212418 C336.89491798 508.39788589 336.89491798 508.39788589 334.96871138 508.40376401 C333.58475203 508.40298391 332.20079273 508.40210515 330.8168335 508.40113831 C329.33655358 508.40372422 327.85627437 508.40673801 326.37599611 508.41014171 C322.31620067 508.41818853 318.25642294 508.41999999 314.19662046 508.42073917 C309.81467944 508.4225938 305.43274751 508.43014325 301.05081177 508.43687439 C291.47201347 508.45044232 281.89321937 508.45648019 272.31441307 508.46088505 C266.32930284 508.46365039 260.34419422 508.4678883 254.35908508 508.47238922 C237.77686413 508.48458047 221.19464446 508.49487968 204.61241913 508.49826431 C203.55159836 508.49848388 202.49077758 508.49870344 201.39781073 508.49892966 C200.33449804 508.49914794 199.27118536 508.49936622 198.17565107 508.49959111 C196.02109241 508.50003457 193.86653376 508.50048114 191.7119751 508.50093079 C190.64324695 508.50115222 189.5745188 508.50137365 188.47340494 508.50160179 C171.16660612 508.50554754 153.85984946 508.52299541 136.55306691 508.54629031 C118.76976605 508.57003267 100.98648631 508.5824675 83.20316935 508.58363223 C73.22448842 508.58454743 63.24586241 508.59026056 53.26719666 508.60845184 C44.76793554 508.62389187 36.26874633 508.62895037 27.76947385 508.62071374 C23.43749272 508.61682087 19.1056562 508.61766976 14.77369308 508.63177109 C10.79839502 508.64459237 6.82334902 508.64324119 2.84805089 508.63118038 C1.4193327 508.62923749 -0.00940386 508.63223565 -1.43809634 508.64102474 C-26.16324701 508.78334882 -46.30909038 500.56444182 -64.77532959 484.26069641 C-78.98310074 469.27061459 -88.87505037 448.82062798 -88.90955067 427.94764233 C-88.91400851 426.69215751 -88.91846635 425.43667269 -88.92305928 424.14314288 C-88.92297 422.75761933 -88.92278017 421.37209579 -88.92250061 419.98657227 C-88.92580212 418.5085806 -88.92952829 417.03058983 -88.93364209 415.5526002 C-88.94363794 411.49440879 -88.947375 407.43623216 -88.9500314 403.37803018 C-88.95394173 398.99944011 -88.96351967 394.62086168 -88.97224426 390.24227905 C-88.99198985 379.66841108 -89.00207323 369.09454217 -89.01097205 358.52066037 C-89.01535876 353.53639474 -89.02072464 348.55213017 -89.02596092 343.56786537 C-89.04297258 326.98997945 -89.05746499 310.41209417 -89.06470966 293.83420086 C-89.06661944 289.53390184 -89.06853979 285.23360283 -89.07049561 280.93330383 C-89.07097935 279.8645348 -89.07146309 278.79576577 -89.07196148 277.6946098 C-89.08025523 260.39555136 -89.10558135 243.09656222 -89.13807628 225.79753401 C-89.17119471 208.02103551 -89.18916281 190.24457217 -89.1923539 172.46804267 C-89.19451475 162.49373407 -89.20320084 152.51952648 -89.22881508 142.54524803 C-89.25058764 134.04747035 -89.25854044 125.54981821 -89.2488483 117.0520158 C-89.2443223 112.72177509 -89.24608986 108.39179304 -89.26560974 104.06158829 C-89.39657025 73.29864845 -86.4667198 47.32653201 -63.77532959 24.26069641 C-63.01478271 23.48725891 -62.25423584 22.71382141 -61.47064209 21.91694641 C-44.5570329 5.72424516 -22.93285423 -0.06661142 0 0 Z " fill="#FEFEFE" transform="translate(90.77532958984375,1.7393035888671875)"/>
<path d="M0 0 C3.50156079 3.1107958 5.46141281 6.45094353 7.4375 10.625 C8.13355976 12.05365587 8.8302194 13.48201956 9.52734375 14.91015625 C9.91390137 15.70824707 10.30045898 16.50633789 10.69873047 17.32861328 C13.26234002 22.59146801 15.88381981 27.82563543 18.5 33.0625 C19.06412598 34.19300781 19.62825195 35.32351562 20.20947266 36.48828125 C23.76178213 43.5866953 27.41663091 50.61369246 31.1875 57.59765625 C34.19354134 63.24046231 37.01930712 68.97136677 39.85791016 74.69970703 C42.06164698 79.1382723 44.28230245 83.56839843 46.5 88 C51.78448189 98.5599735 51.78448189 98.5599735 54.05859375 103.15234375 C58.35260334 111.81111901 62.80273214 120.38120202 67.29223633 128.94018555 C70.98600811 136.00328791 74.57876731 143.11181365 78.125 150.25 C81.64630847 157.3379581 85.22061682 164.38756119 88.9375 171.375 C93.4496347 179.85744715 97.75282703 188.43803134 102.00756836 197.05224609 C105.17502372 203.43993929 108.44431018 209.76206502 111.78125 216.0625 C117.45748589 226.78982858 122.85812187 237.64829106 128.25 248.52050781 C129.49818809 251.03541179 130.74831069 253.54933682 132 256.0625 C132.41032471 256.88637207 132.82064941 257.71024414 133.2434082 258.55908203 C136.50446459 265.07607842 139.87623223 271.53086664 143.33789062 277.94360352 C147.20676971 285.18452486 150.50674924 292.51446265 154 300 C140.14 300 126.28 300 112 300 C105.38077242 287.28215825 98.78529295 274.55427751 92.265625 261.78515625 C91.51654625 260.31810997 91.51654625 260.31810997 90.75233459 258.82142639 C88.25317326 253.92544896 85.75617951 249.02837651 83.26147461 244.13012695 C78.56765632 234.9224294 73.84614205 225.73348804 68.97648621 216.61727905 C65.91178592 210.87504308 62.98435054 205.06788611 60.09765625 199.234375 C59.76137207 198.55568359 59.42508789 197.87699219 59.07861328 197.17773438 C58.7226709 196.45908203 58.36672852 195.74042969 58 195 C51.09450281 181.04439886 51.09450281 181.04439886 43.875 167.25 C40.19936867 160.42641802 36.71835478 153.51449962 33.27539062 146.57128906 C30.5649638 141.10685274 27.84769399 135.64583378 25.125 130.1875 C24.8220401 129.58005951 24.5190802 128.97261902 24.2069397 128.34677124 C20.02247951 119.96433777 15.75451601 111.6323586 11.35839844 103.35888672 C7.78590922 96.63074886 4.36654838 89.83342437 1 83 C-0.83843111 86.33054453 -2.66969955 89.66498138 -4.5 93 C-5.25796875 94.37285156 -5.25796875 94.37285156 -6.03125 95.7734375 C-10.20422033 103.38910836 -14.10809378 111.12170976 -17.96081543 118.90228271 C-19.68444848 122.38164043 -21.41680658 125.85664894 -23.1484375 129.33203125 C-23.49243088 130.02266663 -23.83642426 130.713302 -24.19084167 131.42486572 C-36.33093994 155.79299175 -36.33093994 155.79299175 -42.60498047 167.56567383 C-45.87699984 173.71698624 -49.00252585 179.93615766 -52.07592773 186.18896484 C-54.85114664 191.80279443 -57.75761484 197.34095902 -60.6875 202.875 C-65.9546197 212.83679054 -70.99368925 222.90524372 -76 233 C-81.4030401 243.89472383 -86.87347253 254.74103182 -92.56338501 265.48921204 C-95.57795341 271.18455463 -98.51862714 276.91095213 -101.375 282.6875 C-101.77332031 283.48865234 -102.17164063 284.28980469 -102.58203125 285.11523438 C-103.31791258 286.59544158 -104.05295179 288.0760682 -104.78662109 289.55737305 C-106.51746964 293.04170699 -108.26009082 296.52018165 -110 300 C-123.86 300 -137.72 300 -152 300 C-150.42697082 295.28091246 -148.66372653 291.04874623 -146.4375 286.64453125 C-146.09033936 285.95030563 -145.74317871 285.25608002 -145.38549805 284.54081726 C-144.2611916 282.29591262 -143.13083188 280.0541237 -142 277.8125 C-141.21600843 276.25137108 -140.43215499 274.69017278 -139.6484375 273.12890625 C-135.48302897 264.84524599 -131.26005957 256.59828807 -126.88867188 248.42114258 C-122.20924385 239.61206072 -117.81413259 230.65833184 -113.36975098 221.72924805 C-108.88157836 212.7158145 -104.34669108 203.73919249 -99.60546875 194.85546875 C-95.58589567 187.29322109 -91.78366883 179.62350558 -87.99121094 171.9453125 C-84.82417733 165.55842753 -81.55526319 159.23712946 -78.21875 152.9375 C-72.98113502 143.03910643 -67.97528413 133.03219402 -63 123 C-57.64481716 112.20177585 -52.22246285 101.45271694 -46.57971191 90.80151367 C-43.08591954 84.19626196 -39.7222688 77.53294658 -36.40875244 70.83581543 C-31.72772034 61.37943262 -26.98288564 51.9665651 -22.00805664 42.66064453 C-16.67742692 32.61500741 -11.67580801 22.39750308 -6.62353516 12.20996094 C-6.25983322 11.47832733 -5.89613129 10.74669373 -5.52140808 9.9928894 C-4.82915415 8.60014364 -4.13858962 7.2065566 -3.4499054 5.81204224 C-1.11249938 1.11249938 -1.11249938 1.11249938 0 0 Z " fill="#020202" transform="translate(255,48)"/>
<path d="M0 0 C3.39156947 2.82844096 5.78140535 5.96969362 8.0703125 9.7265625 C8.48410156 10.38140625 8.89789063 11.03625 9.32421875 11.7109375 C13.41504881 19.29393956 13.34848836 28.38407462 11.375 36.6328125 C7.5040946 47.17208433 0.93497109 53.75678245 -8.98046875 58.76171875 C-16.88042117 61.96038122 -26.34963857 62.27912146 -34.38671875 59.5546875 C-40.60545416 56.57950952 -44.90571503 53.35091279 -49.2817362 48.1060788 C-51.39067868 46.34066223 -52.50734028 46.34857528 -55.23440838 46.34180164 C-56.11819721 46.3323451 -57.00198604 46.32288856 -57.91255635 46.31314546 C-58.8843368 46.31799303 -59.85611724 46.32284061 -60.85734558 46.32783508 C-61.88896405 46.32118826 -62.92058252 46.31454143 -63.98346215 46.30769318 C-67.45676576 46.28896973 -70.9297277 46.29167479 -74.40307617 46.29418945 C-76.88625072 46.28517802 -79.36942079 46.27485234 -81.85258484 46.26330566 C-87.20716102 46.24137585 -92.5616396 46.22862936 -97.91625023 46.22417641 C-105.65812804 46.21772239 -113.39988786 46.19479829 -121.14171819 46.16783311 C-133.70180271 46.12453395 -146.26188227 46.0945851 -158.82202148 46.07299805 C-171.02419473 46.05199771 -183.22632737 46.02473091 -195.4284668 45.98901367 C-196.18040151 45.98681485 -196.93233623 45.98461602 -197.70705684 45.98235057 C-201.4792312 45.97128115 -205.25140519 45.9600883 -209.023579 45.94883406 C-240.32558266 45.85560467 -271.62759837 45.7848487 -302.9296875 45.7265625 C-302.9296875 33.1865625 -302.9296875 20.6465625 -302.9296875 7.7265625 C-299.79259781 7.73401993 -296.65550812 7.74147736 -293.4233551 7.74916077 C-264.64192401 7.81340732 -235.86082064 7.83298287 -207.07934335 7.80396819 C-203.30558139 7.80020436 -199.53181918 7.79683182 -195.75805664 7.79370117 C-195.00678251 7.79307135 -194.25550838 7.79244153 -193.48146837 7.79179262 C-181.32390939 7.78253316 -169.16660546 7.80495697 -157.00909985 7.83913226 C-144.53022113 7.87350409 -132.05167704 7.87372915 -119.57278866 7.84239191 C-111.87513328 7.82413356 -104.17844907 7.83236852 -96.4808846 7.87471526 C-90.57394604 7.90435489 -84.66774568 7.88643752 -78.76082039 7.85093307 C-76.34092231 7.84379488 -73.92092228 7.8520029 -71.50114059 7.87678719 C-59.07666359 8.46076131 -59.07666359 8.46076131 -47.59559441 4.73653984 C-45.38623242 2.51490967 -43.72898116 0.27523135 -41.9296875 -2.2734375 C-28.96841666 -10.95977592 -12.24571608 -8.66160405 0 0 Z " fill="#030303" transform="translate(400.9296875,393.2734375)"/>
</svg>
