<svg xmlns="http://www.w3.org/2000/svg" viewBox="0 0 520 58" width="520" height="58">
  <defs>
    <linearGradient id="textGrad" x1="0%" y1="0%" x2="100%" y2="0%">
      <stop offset="0%" style="stop-color:#1A2B5F"/>
      <stop offset="100%" style="stop-color:#0D1A3A"/>
    </linearGradient>
  </defs>

  <polygon points="0.0,-31.2 -9.0,-15.6 -27.0,-15.6 -36.0,-31.2 -27.0,-46.8 -9.0,-46.8" fill="none" stroke="#328188" stroke-width="0.6" opacity="0.35"/>
  <polygon points="0.0,0.0 -9.0,15.6 -27.0,15.6 -36.0,0.0 -27.0,-15.6 -9.0,-15.6" fill="none" stroke="#328188" stroke-width="0.6" opacity="0.35"/>
  <polygon points="0.0,31.2 -9.0,46.8 -27.0,46.8 -36.0,31.2 -27.0,15.6 -9.0,15.6" fill="none" stroke="#328188" stroke-width="0.6" opacity="0.35"/>
  <polygon points="0.0,62.4 -9.0,77.9 -27.0,77.9 -36.0,62.4 -27.0,46.8 -9.0,46.8" fill="none" stroke="#328188" stroke-width="0.6" opacity="0.35"/>
  <polygon points="27.0,-15.6 18.0,0.0 0.0,0.0 -9.0,-15.6 -0.0,-31.2 18.0,-31.2" fill="none" stroke="#328188" stroke-width="0.6" opacity="0.34"/>
  <polygon points="27.0,15.6 18.0,31.2 0.0,31.2 -9.0,15.6 -0.0,0.0 18.0,0.0" fill="none" stroke="#328188" stroke-width="0.6" opacity="0.34"/>
  <polygon points="27.0,46.8 18.0,62.4 0.0,62.4 -9.0,46.8 -0.0,31.2 18.0,31.2" fill="none" stroke="#328188" stroke-width="0.6" opacity="0.34"/>
  <polygon points="27.0,77.9 18.0,93.5 0.0,93.5 -9.0,77.9 -0.0,62.4 18.0,62.4" fill="none" stroke="#328188" stroke-width="0.6" opacity="0.34"/>
  <polygon points="54.0,-31.2 45.0,-15.6 27.0,-15.6 18.0,-31.2 27.0,-46.8 45.0,-46.8" fill="none" stroke="#328188" stroke-width="0.6" opacity="0.33"/>
  <polygon points="54.0,0.0 45.0,15.6 27.0,15.6 18.0,0.0 27.0,-15.6 45.0,-15.6" fill="none" stroke="#328188" stroke-width="0.6" opacity="0.33"/>
  <polygon points="54.0,31.2 45.0,46.8 27.0,46.8 18.0,31.2 27.0,15.6 45.0,15.6" fill="none" stroke="#328188" stroke-width="0.6" opacity="0.33"/>
  <polygon points="54.0,62.4 45.0,77.9 27.0,77.9 18.0,62.4 27.0,46.8 45.0,46.8" fill="none" stroke="#328188" stroke-width="0.6" opacity="0.33"/>
  <polygon points="81.0,-15.6 72.0,0.0 54.0,0.0 45.0,-15.6 54.0,-31.2 72.0,-31.2" fill="none" stroke="#328188" stroke-width="0.6" opacity="0.31"/>
  <polygon points="81.0,15.6 72.0,31.2 54.0,31.2 45.0,15.6 54.0,0.0 72.0,0.0" fill="none" stroke="#328188" stroke-width="0.6" opacity="0.31"/>
  <polygon points="81.0,46.8 72.0,62.4 54.0,62.4 45.0,46.8 54.0,31.2 72.0,31.2" fill="none" stroke="#328188" stroke-width="0.6" opacity="0.31"/>
  <polygon points="81.0,77.9 72.0,93.5 54.0,93.5 45.0,77.9 54.0,62.4 72.0,62.4" fill="none" stroke="#328188" stroke-width="0.6" opacity="0.31"/>
  <polygon points="108.0,-31.2 99.0,-15.6 81.0,-15.6 72.0,-31.2 81.0,-46.8 99.0,-46.8" fill="none" stroke="#328188" stroke-width="0.6" opacity="0.29"/>
  <polygon points="108.0,0.0 99.0,15.6 81.0,15.6 72.0,0.0 81.0,-15.6 99.0,-15.6" fill="none" stroke="#328188" stroke-width="0.6" opacity="0.29"/>
  <polygon points="108.0,31.2 99.0,46.8 81.0,46.8 72.0,31.2 81.0,15.6 99.0,15.6" fill="none" stroke="#328188" stroke-width="0.6" opacity="0.29"/>
  <polygon points="108.0,62.4 99.0,77.9 81.0,77.9 72.0,62.4 81.0,46.8 99.0,46.8" fill="none" stroke="#328188" stroke-width="0.6" opacity="0.29"/>
  <polygon points="135.0,-15.6 126.0,0.0 108.0,0.0 99.0,-15.6 108.0,-31.2 126.0,-31.2" fill="none" stroke="#328188" stroke-width="0.6" opacity="0.27"/>
  <polygon points="135.0,15.6 126.0,31.2 108.0,31.2 99.0,15.6 108.0,0.0 126.0,0.0" fill="none" stroke="#328188" stroke-width="0.6" opacity="0.27"/>
  <polygon points="135.0,46.8 126.0,62.4 108.0,62.4 99.0,46.8 108.0,31.2 126.0,31.2" fill="none" stroke="#328188" stroke-width="0.6" opacity="0.27"/>
  <polygon points="135.0,77.9 126.0,93.5 108.0,93.5 99.0,77.9 108.0,62.4 126.0,62.4" fill="none" stroke="#328188" stroke-width="0.6" opacity="0.27"/>
  <polygon points="162.0,-31.2 153.0,-15.6 135.0,-15.6 126.0,-31.2 135.0,-46.8 153.0,-46.8" fill="none" stroke="#328188" stroke-width="0.6" opacity="0.25"/>
  <polygon points="162.0,0.0 153.0,15.6 135.0,15.6 126.0,0.0 135.0,-15.6 153.0,-15.6" fill="none" stroke="#328188" stroke-width="0.6" opacity="0.25"/>
  <polygon points="162.0,31.2 153.0,46.8 135.0,46.8 126.0,31.2 135.0,15.6 153.0,15.6" fill="none" stroke="#328188" stroke-width="0.6" opacity="0.25"/>
  <polygon points="162.0,62.4 153.0,77.9 135.0,77.9 126.0,62.4 135.0,46.8 153.0,46.8" fill="none" stroke="#328188" stroke-width="0.6" opacity="0.25"/>
  <polygon points="189.0,-15.6 180.0,0.0 162.0,0.0 153.0,-15.6 162.0,-31.2 180.0,-31.2" fill="none" stroke="#328188" stroke-width="0.6" opacity="0.23"/>
  <polygon points="189.0,15.6 180.0,31.2 162.0,31.2 153.0,15.6 162.0,0.0 180.0,0.0" fill="none" stroke="#328188" stroke-width="0.6" opacity="0.23"/>
  <polygon points="189.0,46.8 180.0,62.4 162.0,62.4 153.0,46.8 162.0,31.2 180.0,31.2" fill="none" stroke="#328188" stroke-width="0.6" opacity="0.23"/>
  <polygon points="189.0,77.9 180.0,93.5 162.0,93.5 153.0,77.9 162.0,62.4 180.0,62.4" fill="none" stroke="#328188" stroke-width="0.6" opacity="0.23"/>
  <polygon points="216.0,-31.2 207.0,-15.6 189.0,-15.6 180.0,-31.2 189.0,-46.8 207.0,-46.8" fill="none" stroke="#328188" stroke-width="0.6" opacity="0.22"/>
  <polygon points="216.0,0.0 207.0,15.6 189.0,15.6 180.0,0.0 189.0,-15.6 207.0,-15.6" fill="none" stroke="#328188" stroke-width="0.6" opacity="0.22"/>
  <polygon points="216.0,31.2 207.0,46.8 189.0,46.8 180.0,31.2 189.0,15.6 207.0,15.6" fill="none" stroke="#328188" stroke-width="0.6" opacity="0.22"/>
  <polygon points="216.0,62.4 207.0,77.9 189.0,77.9 180.0,62.4 189.0,46.8 207.0,46.8" fill="none" stroke="#328188" stroke-width="0.6" opacity="0.22"/>
  <polygon points="243.0,-15.6 234.0,0.0 216.0,0.0 207.0,-15.6 216.0,-31.2 234.0,-31.2" fill="none" stroke="#328188" stroke-width="0.6" opacity="0.20"/>
  <polygon points="243.0,15.6 234.0,31.2 216.0,31.2 207.0,15.6 216.0,0.0 234.0,0.0" fill="none" stroke="#328188" stroke-width="0.6" opacity="0.20"/>
  <polygon points="243.0,46.8 234.0,62.4 216.0,62.4 207.0,46.8 216.0,31.2 234.0,31.2" fill="none" stroke="#328188" stroke-width="0.6" opacity="0.20"/>
  <polygon points="243.0,77.9 234.0,93.5 216.0,93.5 207.0,77.9 216.0,62.4 234.0,62.4" fill="none" stroke="#328188" stroke-width="0.6" opacity="0.20"/>
  <polygon points="270.0,-31.2 261.0,-15.6 243.0,-15.6 234.0,-31.2 243.0,-46.8 261.0,-46.8" fill="none" stroke="#328188" stroke-width="0.6" opacity="0.18"/>
  <polygon points="270.0,0.0 261.0,15.6 243.0,15.6 234.0,0.0 243.0,-15.6 261.0,-15.6" fill="none" stroke="#328188" stroke-width="0.6" opacity="0.18"/>
  <polygon points="270.0,31.2 261.0,46.8 243.0,46.8 234.0,31.2 243.0,15.6 261.0,15.6" fill="none" stroke="#328188" stroke-width="0.6" opacity="0.18"/>
  <polygon points="270.0,62.4 261.0,77.9 243.0,77.9 234.0,62.4 243.0,46.8 261.0,46.8" fill="none" stroke="#328188" stroke-width="0.6" opacity="0.18"/>
  <polygon points="297.0,-15.6 288.0,0.0 270.0,0.0 261.0,-15.6 270.0,-31.2 288.0,-31.2" fill="none" stroke="#328188" stroke-width="0.6" opacity="0.16"/>
  <polygon points="297.0,15.6 288.0,31.2 270.0,31.2 261.0,15.6 270.0,0.0 288.0,0.0" fill="none" stroke="#328188" stroke-width="0.6" opacity="0.16"/>
  <polygon points="297.0,46.8 288.0,62.4 270.0,62.4 261.0,46.8 270.0,31.2 288.0,31.2" fill="none" stroke="#328188" stroke-width="0.6" opacity="0.16"/>
  <polygon points="297.0,77.9 288.0,93.5 270.0,93.5 261.0,77.9 270.0,62.4 288.0,62.4" fill="none" stroke="#328188" stroke-width="0.6" opacity="0.16"/>
  <polygon points="324.0,-31.2 315.0,-15.6 297.0,-15.6 288.0,-31.2 297.0,-46.8 315.0,-46.8" fill="none" stroke="#328188" stroke-width="0.6" opacity="0.14"/>
  <polygon points="324.0,0.0 315.0,15.6 297.0,15.6 288.0,0.0 297.0,-15.6 315.0,-15.6" fill="none" stroke="#328188" stroke-width="0.6" opacity="0.14"/>
  <polygon points="324.0,31.2 315.0,46.8 297.0,46.8 288.0,31.2 297.0,15.6 315.0,15.6" fill="none" stroke="#328188" stroke-width="0.6" opacity="0.14"/>
  <polygon points="324.0,62.4 315.0,77.9 297.0,77.9 288.0,62.4 297.0,46.8 315.0,46.8" fill="none" stroke="#328188" stroke-width="0.6" opacity="0.14"/>
  <polygon points="351.0,-15.6 342.0,0.0 324.0,0.0 315.0,-15.6 324.0,-31.2 342.0,-31.2" fill="none" stroke="#328188" stroke-width="0.6" opacity="0.13"/>
  <polygon points="351.0,15.6 342.0,31.2 324.0,31.2 315.0,15.6 324.0,0.0 342.0,0.0" fill="none" stroke="#328188" stroke-width="0.6" opacity="0.13"/>
  <polygon points="351.0,46.8 342.0,62.4 324.0,62.4 315.0,46.8 324.0,31.2 342.0,31.2" fill="none" stroke="#328188" stroke-width="0.6" opacity="0.13"/>
  <polygon points="351.0,77.9 342.0,93.5 324.0,93.5 315.0,77.9 324.0,62.4 342.0,62.4" fill="none" stroke="#328188" stroke-width="0.6" opacity="0.13"/>
  <polygon points="378.0,-31.2 369.0,-15.6 351.0,-15.6 342.0,-31.2 351.0,-46.8 369.0,-46.8" fill="none" stroke="#328188" stroke-width="0.6" opacity="0.11"/>
  <polygon points="378.0,0.0 369.0,15.6 351.0,15.6 342.0,0.0 351.0,-15.6 369.0,-15.6" fill="none" stroke="#328188" stroke-width="0.6" opacity="0.11"/>
  <polygon points="378.0,31.2 369.0,46.8 351.0,46.8 342.0,31.2 351.0,15.6 369.0,15.6" fill="none" stroke="#328188" stroke-width="0.6" opacity="0.11"/>
  <polygon points="378.0,62.4 369.0,77.9 351.0,77.9 342.0,62.4 351.0,46.8 369.0,46.8" fill="none" stroke="#328188" stroke-width="0.6" opacity="0.11"/>
  <polygon points="405.0,-15.6 396.0,0.0 378.0,0.0 369.0,-15.6 378.0,-31.2 396.0,-31.2" fill="none" stroke="#328188" stroke-width="0.6" opacity="0.09"/>
  <polygon points="405.0,15.6 396.0,31.2 378.0,31.2 369.0,15.6 378.0,0.0 396.0,0.0" fill="none" stroke="#328188" stroke-width="0.6" opacity="0.09"/>
  <polygon points="405.0,46.8 396.0,62.4 378.0,62.4 369.0,46.8 378.0,31.2 396.0,31.2" fill="none" stroke="#328188" stroke-width="0.6" opacity="0.09"/>
  <polygon points="405.0,77.9 396.0,93.5 378.0,93.5 369.0,77.9 378.0,62.4 396.0,62.4" fill="none" stroke="#328188" stroke-width="0.6" opacity="0.09"/>
  <polygon points="432.0,-31.2 423.0,-15.6 405.0,-15.6 396.0,-31.2 405.0,-46.8 423.0,-46.8" fill="none" stroke="#328188" stroke-width="0.6" opacity="0.07"/>
  <polygon points="432.0,0.0 423.0,15.6 405.0,15.6 396.0,0.0 405.0,-15.6 423.0,-15.6" fill="none" stroke="#328188" stroke-width="0.6" opacity="0.07"/>
  <polygon points="432.0,31.2 423.0,46.8 405.0,46.8 396.0,31.2 405.0,15.6 423.0,15.6" fill="none" stroke="#328188" stroke-width="0.6" opacity="0.07"/>
  <polygon points="432.0,62.4 423.0,77.9 405.0,77.9 396.0,62.4 405.0,46.8 423.0,46.8" fill="none" stroke="#328188" stroke-width="0.6" opacity="0.07"/>
  <polygon points="459.0,-15.6 450.0,0.0 432.0,0.0 423.0,-15.6 432.0,-31.2 450.0,-31.2" fill="none" stroke="#328188" stroke-width="0.6" opacity="0.05"/>
  <polygon points="459.0,15.6 450.0,31.2 432.0,31.2 423.0,15.6 432.0,0.0 450.0,0.0" fill="none" stroke="#328188" stroke-width="0.6" opacity="0.05"/>
  <polygon points="459.0,46.8 450.0,62.4 432.0,62.4 423.0,46.8 432.0,31.2 450.0,31.2" fill="none" stroke="#328188" stroke-width="0.6" opacity="0.05"/>
  <polygon points="459.0,77.9 450.0,93.5 432.0,93.5 423.0,77.9 432.0,62.4 450.0,62.4" fill="none" stroke="#328188" stroke-width="0.6" opacity="0.05"/>
  <polygon points="486.0,-31.2 477.0,-15.6 459.0,-15.6 450.0,-31.2 459.0,-46.8 477.0,-46.8" fill="none" stroke="#328188" stroke-width="0.6" opacity="0.03"/>
  <polygon points="486.0,0.0 477.0,15.6 459.0,15.6 450.0,0.0 459.0,-15.6 477.0,-15.6" fill="none" stroke="#328188" stroke-width="0.6" opacity="0.03"/>
  <polygon points="486.0,31.2 477.0,46.8 459.0,46.8 450.0,31.2 459.0,15.6 477.0,15.6" fill="none" stroke="#328188" stroke-width="0.6" opacity="0.03"/>
  <polygon points="486.0,62.4 477.0,77.9 459.0,77.9 450.0,62.4 459.0,46.8 477.0,46.8" fill="none" stroke="#328188" stroke-width="0.6" opacity="0.03"/>

  <text x="0" y="48" font-family="'Segoe UI', 'Helvetica Neue', Arial, sans-serif" font-size="56" fill="url(#textGrad)" letter-spacing="2">
    <tspan font-weight="700">Trust</tspan><tspan font-weight="300">odian</tspan>
  </text>

  <g transform="translate(155, 44) rotate(-15, 10, -5)">
    <path d="M5,0 L5,-4 C5,-9 8,-11.5 10.5,-11.5 C13,-11.5 16,-9 16,-4 L16,0"
          fill="none" stroke="#328188" stroke-width="2.5" stroke-linecap="round"/>
    <rect x="2.5" y="-0.8" width="16" height="12" rx="2" fill="#328188"/>
    <circle cx="10.5" cy="4.8" r="2" fill="#1A2B5F"/>
    <rect x="9.3" y="5.6" width="2.4" height="3.2" rx="0.7" fill="#1A2B5F"/>
  </g>
</svg>