<svg xmlns="http://www.w3.org/2000/svg" viewBox="0 0 1100 120" width="1100" height="120">
  <defs>
    <linearGradient id="textGradDark" x1="0%" y1="0%" x2="100%" y2="0%">
      <stop offset="0%" style="stop-color:#FFFFFF"/>
      <stop offset="100%" style="stop-color:#D8DDE8"/>
    </linearGradient>
  </defs>

  <polygon points="0.0,-52.0 -15.0,-26.0 -45.0,-26.0 -60.0,-52.0 -45.0,-77.9 -15.0,-77.9" fill="none" stroke="#45A3AB" stroke-width="0.9" opacity="0.35"/>
  <polygon points="0.0,0.0 -15.0,26.0 -45.0,26.0 -60.0,0.0 -45.0,-26.0 -15.0,-26.0" fill="none" stroke="#45A3AB" stroke-width="0.9" opacity="0.35"/>
  <polygon points="0.0,52.0 -15.0,77.9 -45.0,77.9 -60.0,52.0 -45.0,26.0 -15.0,26.0" fill="none" stroke="#45A3AB" stroke-width="0.9" opacity="0.35"/>
  <polygon points="0.0,103.9 -15.0,129.9 -45.0,129.9 -60.0,103.9 -45.0,77.9 -15.0,77.9" fill="none" stroke="#45A3AB" stroke-width="0.9" opacity="0.35"/>
  <polygon points="0.0,155.9 -15.0,181.9 -45.0,181.9 -60.0,155.9 -45.0,129.9 -15.0,129.9" fill="none" stroke="#45A3AB" stroke-width="0.9" opacity="0.35"/>
  <polygon points="45.0,-26.0 30.0,0.0 0.0,0.0 -15.0,-26.0 -0.0,-52.0 30.0,-52.0" fill="none" stroke="#45A3AB" stroke-width="0.9" opacity="0.35"/>
  <polygon points="45.0,26.0 30.0,52.0 0.0,52.0 -15.0,26.0 -0.0,0.0 30.0,0.0" fill="none" stroke="#45A3AB" stroke-width="0.9" opacity="0.35"/>
  <polygon points="45.0,77.9 30.0,103.9 0.0,103.9 -15.0,77.9 -0.0,52.0 30.0,52.0" fill="none" stroke="#45A3AB" stroke-width="0.9" opacity="0.35"/>
  <polygon points="45.0,129.9 30.0,155.9 0.0,155.9 -15.0,129.9 -0.0,103.9 30.0,103.9" fill="none" stroke="#45A3AB" stroke-width="0.9" opacity="0.35"/>
  <polygon points="90.0,-52.0 75.0,-26.0 45.0,-26.0 30.0,-52.0 45.0,-77.9 75.0,-77.9" fill="none" stroke="#45A3AB" stroke-width="0.9" opacity="0.33"/>
  <polygon points="90.0,0.0 75.0,26.0 45.0,26.0 30.0,0.0 45.0,-26.0 75.0,-26.0" fill="none" stroke="#45A3AB" stroke-width="0.9" opacity="0.33"/>
  <polygon points="90.0,52.0 75.0,77.9 45.0,77.9 30.0,52.0 45.0,26.0 75.0,26.0" fill="none" stroke="#45A3AB" stroke-width="0.9" opacity="0.33"/>
  <polygon points="90.0,103.9 75.0,129.9 45.0,129.9 30.0,103.9 45.0,77.9 75.0,77.9" fill="none" stroke="#45A3AB" stroke-width="0.9" opacity="0.33"/>
  <polygon points="90.0,155.9 75.0,181.9 45.0,181.9 30.0,155.9 45.0,129.9 75.0,129.9" fill="none" stroke="#45A3AB" stroke-width="0.9" opacity="0.33"/>
  <polygon points="135.0,-26.0 120.0,0.0 90.0,0.0 75.0,-26.0 90.0,-52.0 120.0,-52.0" fill="none" stroke="#45A3AB" stroke-width="0.9" opacity="0.32"/>
  <polygon points="135.0,26.0 120.0,52.0 90.0,52.0 75.0,26.0 90.0,0.0 120.0,0.0" fill="none" stroke="#45A3AB" stroke-width="0.9" opacity="0.32"/>
  <polygon points="135.0,77.9 120.0,103.9 90.0,103.9 75.0,77.9 90.0,52.0 120.0,52.0" fill="none" stroke="#45A3AB" stroke-width="0.9" opacity="0.32"/>
  <polygon points="135.0,129.9 120.0,155.9 90.0,155.9 75.0,129.9 90.0,103.9 120.0,103.9" fill="none" stroke="#45A3AB" stroke-width="0.9" opacity="0.32"/>
  <polygon points="180.0,-52.0 165.0,-26.0 135.0,-26.0 120.0,-52.0 135.0,-77.9 165.0,-77.9" fill="none" stroke="#45A3AB" stroke-width="0.9" opacity="0.30"/>
  <polygon points="180.0,0.0 165.0,26.0 135.0,26.0 120.0,0.0 135.0,-26.0 165.0,-26.0" fill="none" stroke="#45A3AB" stroke-width="0.9" opacity="0.30"/>
  <polygon points="180.0,52.0 165.0,77.9 135.0,77.9 120.0,52.0 135.0,26.0 165.0,26.0" fill="none" stroke="#45A3AB" stroke-width="0.9" opacity="0.30"/>
  <polygon points="180.0,103.9 165.0,129.9 135.0,129.9 120.0,103.9 135.0,77.9 165.0,77.9" fill="none" stroke="#45A3AB" stroke-width="0.9" opacity="0.30"/>
  <polygon points="180.0,155.9 165.0,181.9 135.0,181.9 120.0,155.9 135.0,129.9 165.0,129.9" fill="none" stroke="#45A3AB" stroke-width="0.9" opacity="0.30"/>
  <polygon points="225.0,-26.0 210.0,0.0 180.0,0.0 165.0,-26.0 180.0,-52.0 210.0,-52.0" fill="none" stroke="#45A3AB" stroke-width="0.9" opacity="0.29"/>
  <polygon points="225.0,26.0 210.0,52.0 180.0,52.0 165.0,26.0 180.0,0.0 210.0,0.0" fill="none" stroke="#45A3AB" stroke-width="0.9" opacity="0.29"/>
  <polygon points="225.0,77.9 210.0,103.9 180.0,103.9 165.0,77.9 180.0,52.0 210.0,52.0" fill="none" stroke="#45A3AB" stroke-width="0.9" opacity="0.29"/>
  <polygon points="225.0,129.9 210.0,155.9 180.0,155.9 165.0,129.9 180.0,103.9 210.0,103.9" fill="none" stroke="#45A3AB" stroke-width="0.9" opacity="0.29"/>
  <polygon points="270.0,-52.0 255.0,-26.0 225.0,-26.0 210.0,-52.0 225.0,-77.9 255.0,-77.9" fill="none" stroke="#45A3AB" stroke-width="0.9" opacity="0.27"/>
  <polygon points="270.0,0.0 255.0,26.0 225.0,26.0 210.0,0.0 225.0,-26.0 255.0,-26.0" fill="none" stroke="#45A3AB" stroke-width="0.9" opacity="0.27"/>
  <polygon points="270.0,52.0 255.0,77.9 225.0,77.9 210.0,52.0 225.0,26.0 255.0,26.0" fill="none" stroke="#45A3AB" stroke-width="0.9" opacity="0.27"/>
  <polygon points="270.0,103.9 255.0,129.9 225.0,129.9 210.0,103.9 225.0,77.9 255.0,77.9" fill="none" stroke="#45A3AB" stroke-width="0.9" opacity="0.27"/>
  <polygon points="270.0,155.9 255.0,181.9 225.0,181.9 210.0,155.9 225.0,129.9 255.0,129.9" fill="none" stroke="#45A3AB" stroke-width="0.9" opacity="0.27"/>
  <polygon points="315.0,-26.0 300.0,0.0 270.0,0.0 255.0,-26.0 270.0,-52.0 300.0,-52.0" fill="none" stroke="#45A3AB" stroke-width="0.9" opacity="0.26"/>
  <polygon points="315.0,26.0 300.0,52.0 270.0,52.0 255.0,26.0 270.0,0.0 300.0,0.0" fill="none" stroke="#45A3AB" stroke-width="0.9" opacity="0.26"/>
  <polygon points="315.0,77.9 300.0,103.9 270.0,103.9 255.0,77.9 270.0,52.0 300.0,52.0" fill="none" stroke="#45A3AB" stroke-width="0.9" opacity="0.26"/>
  <polygon points="315.0,129.9 300.0,155.9 270.0,155.9 255.0,129.9 270.0,103.9 300.0,103.9" fill="none" stroke="#45A3AB" stroke-width="0.9" opacity="0.26"/>
  <polygon points="360.0,-52.0 345.0,-26.0 315.0,-26.0 300.0,-52.0 315.0,-77.9 345.0,-77.9" fill="none" stroke="#45A3AB" stroke-width="0.9" opacity="0.24"/>
  <polygon points="360.0,0.0 345.0,26.0 315.0,26.0 300.0,0.0 315.0,-26.0 345.0,-26.0" fill="none" stroke="#45A3AB" stroke-width="0.9" opacity="0.24"/>
  <polygon points="360.0,52.0 345.0,77.9 315.0,77.9 300.0,52.0 315.0,26.0 345.0,26.0" fill="none" stroke="#45A3AB" stroke-width="0.9" opacity="0.24"/>
  <polygon points="360.0,103.9 345.0,129.9 315.0,129.9 300.0,103.9 315.0,77.9 345.0,77.9" fill="none" stroke="#45A3AB" stroke-width="0.9" opacity="0.24"/>
  <polygon points="360.0,155.9 345.0,181.9 315.0,181.9 300.0,155.9 315.0,129.9 345.0,129.9" fill="none" stroke="#45A3AB" stroke-width="0.9" opacity="0.24"/>
  <polygon points="405.0,-26.0 390.0,0.0 360.0,0.0 345.0,-26.0 360.0,-52.0 390.0,-52.0" fill="none" stroke="#45A3AB" stroke-width="0.9" opacity="0.23"/>
  <polygon points="405.0,26.0 390.0,52.0 360.0,52.0 345.0,26.0 360.0,0.0 390.0,0.0" fill="none" stroke="#45A3AB" stroke-width="0.9" opacity="0.23"/>
  <polygon points="405.0,77.9 390.0,103.9 360.0,103.9 345.0,77.9 360.0,52.0 390.0,52.0" fill="none" stroke="#45A3AB" stroke-width="0.9" opacity="0.23"/>
  <polygon points="405.0,129.9 390.0,155.9 360.0,155.9 345.0,129.9 360.0,103.9 390.0,103.9" fill="none" stroke="#45A3AB" stroke-width="0.9" opacity="0.23"/>
  <polygon points="450.0,-52.0 435.0,-26.0 405.0,-26.0 390.0,-52.0 405.0,-77.9 435.0,-77.9" fill="none" stroke="#45A3AB" stroke-width="0.9" opacity="0.22"/>
  <polygon points="450.0,0.0 435.0,26.0 405.0,26.0 390.0,0.0 405.0,-26.0 435.0,-26.0" fill="none" stroke="#45A3AB" stroke-width="0.9" opacity="0.22"/>
  <polygon points="450.0,52.0 435.0,77.9 405.0,77.9 390.0,52.0 405.0,26.0 435.0,26.0" fill="none" stroke="#45A3AB" stroke-width="0.9" opacity="0.22"/>
  <polygon points="450.0,103.9 435.0,129.9 405.0,129.9 390.0,103.9 405.0,77.9 435.0,77.9" fill="none" stroke="#45A3AB" stroke-width="0.9" opacity="0.22"/>
  <polygon points="450.0,155.9 435.0,181.9 405.0,181.9 390.0,155.9 405.0,129.9 435.0,129.9" fill="none" stroke="#45A3AB" stroke-width="0.9" opacity="0.22"/>
  <polygon points="495.0,-26.0 480.0,0.0 450.0,0.0 435.0,-26.0 450.0,-52.0 480.0,-52.0" fill="none" stroke="#45A3AB" stroke-width="0.9" opacity="0.20"/>
  <polygon points="495.0,26.0 480.0,52.0 450.0,52.0 435.0,26.0 450.0,0.0 480.0,0.0" fill="none" stroke="#45A3AB" stroke-width="0.9" opacity="0.20"/>
  <polygon points="495.0,77.9 480.0,103.9 450.0,103.9 435.0,77.9 450.0,52.0 480.0,52.0" fill="none" stroke="#45A3AB" stroke-width="0.9" opacity="0.20"/>
  <polygon points="495.0,129.9 480.0,155.9 450.0,155.9 435.0,129.9 450.0,103.9 480.0,103.9" fill="none" stroke="#45A3AB" stroke-width="0.9" opacity="0.20"/>
  <polygon points="540.0,-52.0 525.0,-26.0 495.0,-26.0 480.0,-52.0 495.0,-77.9 525.0,-77.9" fill="none" stroke="#45A3AB" stroke-width="0.9" opacity="0.19"/>
  <polygon points="540.0,0.0 525.0,26.0 495.0,26.0 480.0,0.0 495.0,-26.0 525.0,-26.0" fill="none" stroke="#45A3AB" stroke-width="0.9" opacity="0.19"/>
  <polygon points="540.0,52.0 525.0,77.9 495.0,77.9 480.0,52.0 495.0,26.0 525.0,26.0" fill="none" stroke="#45A3AB" stroke-width="0.9" opacity="0.19"/>
  <polygon points="540.0,103.9 525.0,129.9 495.0,129.9 480.0,103.9 495.0,77.9 525.0,77.9" fill="none" stroke="#45A3AB" stroke-width="0.9" opacity="0.19"/>
  <polygon points="540.0,155.9 525.0,181.9 495.0,181.9 480.0,155.9 495.0,129.9 525.0,129.9" fill="none" stroke="#45A3AB" stroke-width="0.9" opacity="0.19"/>
  <polygon points="585.0,-26.0 570.0,0.0 540.0,0.0 525.0,-26.0 540.0,-52.0 570.0,-52.0" fill="none" stroke="#45A3AB" stroke-width="0.9" opacity="0.17"/>
  <polygon points="585.0,26.0 570.0,52.0 540.0,52.0 525.0,26.0 540.0,0.0 570.0,0.0" fill="none" stroke="#45A3AB" stroke-width="0.9" opacity="0.17"/>
  <polygon points="585.0,77.9 570.0,103.9 540.0,103.9 525.0,77.9 540.0,52.0 570.0,52.0" fill="none" stroke="#45A3AB" stroke-width="0.9" opacity="0.17"/>
  <polygon points="585.0,129.9 570.0,155.9 540.0,155.9 525.0,129.9 540.0,103.9 570.0,103.9" fill="none" stroke="#45A3AB" stroke-width="0.9" opacity="0.17"/>
  <polygon points="630.0,-52.0 615.0,-26.0 585.0,-26.0 570.0,-52.0 585.0,-77.9 615.0,-77.9" fill="none" stroke="#45A3AB" stroke-width="0.9" opacity="0.16"/>
  <polygon points="630.0,0.0 615.0,26.0 585.0,26.0 570.0,0.0 585.0,-26.0 615.0,-26.0" fill="none" stroke="#45A3AB" stroke-width="0.9" opacity="0.16"/>
  <polygon points="630.0,52.0 615.0,77.9 585.0,77.9 570.0,52.0 585.0,26.0 615.0,26.0" fill="none" stroke="#45A3AB" stroke-width="0.9" opacity="0.16"/>
  <polygon points="630.0,103.9 615.0,129.9 585.0,129.9 570.0,103.9 585.0,77.9 615.0,77.9" fill="none" stroke="#45A3AB" stroke-width="0.9" opacity="0.16"/>
  <polygon points="630.0,155.9 615.0,181.9 585.0,181.9 570.0,155.9 585.0,129.9 615.0,129.9" fill="none" stroke="#45A3AB" stroke-width="0.9" opacity="0.16"/>
  <polygon points="675.0,-26.0 660.0,0.0 630.0,0.0 615.0,-26.0 630.0,-52.0 660.0,-52.0" fill="none" stroke="#45A3AB" stroke-width="0.9" opacity="0.14"/>
  <polygon points="675.0,26.0 660.0,52.0 630.0,52.0 615.0,26.0 630.0,0.0 660.0,0.0" fill="none" stroke="#45A3AB" stroke-width="0.9" opacity="0.14"/>
  <polygon points="675.0,77.9 660.0,103.9 630.0,103.9 615.0,77.9 630.0,52.0 660.0,52.0" fill="none" stroke="#45A3AB" stroke-width="0.9" opacity="0.14"/>
  <polygon points="675.0,129.9 660.0,155.9 630.0,155.9 615.0,129.9 630.0,103.9 660.0,103.9" fill="none" stroke="#45A3AB" stroke-width="0.9" opacity="0.14"/>
  <polygon points="720.0,-52.0 705.0,-26.0 675.0,-26.0 660.0,-52.0 675.0,-77.9 705.0,-77.9" fill="none" stroke="#45A3AB" stroke-width="0.9" opacity="0.13"/>
  <polygon points="720.0,0.0 705.0,26.0 675.0,26.0 660.0,0.0 675.0,-26.0 705.0,-26.0" fill="none" stroke="#45A3AB" stroke-width="0.9" opacity="0.13"/>
  <polygon points="720.0,52.0 705.0,77.9 675.0,77.9 660.0,52.0 675.0,26.0 705.0,26.0" fill="none" stroke="#45A3AB" stroke-width="0.9" opacity="0.13"/>
  <polygon points="720.0,103.9 705.0,129.9 675.0,129.9 660.0,103.9 675.0,77.9 705.0,77.9" fill="none" stroke="#45A3AB" stroke-width="0.9" opacity="0.13"/>
  <polygon points="720.0,155.9 705.0,181.9 675.0,181.9 660.0,155.9 675.0,129.9 705.0,129.9" fill="none" stroke="#45A3AB" stroke-width="0.9" opacity="0.13"/>
  <polygon points="765.0,-26.0 750.0,0.0 720.0,0.0 705.0,-26.0 720.0,-52.0 750.0,-52.0" fill="none" stroke="#45A3AB" stroke-width="0.9" opacity="0.12"/>
  <polygon points="765.0,26.0 750.0,52.0 720.0,52.0 705.0,26.0 720.0,0.0 750.0,0.0" fill="none" stroke="#45A3AB" stroke-width="0.9" opacity="0.12"/>
  <polygon points="765.0,77.9 750.0,103.9 720.0,103.9 705.0,77.9 720.0,52.0 750.0,52.0" fill="none" stroke="#45A3AB" stroke-width="0.9" opacity="0.12"/>
  <polygon points="765.0,129.9 750.0,155.9 720.0,155.9 705.0,129.9 720.0,103.9 750.0,103.9" fill="none" stroke="#45A3AB" stroke-width="0.9" opacity="0.12"/>
  <polygon points="810.0,-52.0 795.0,-26.0 765.0,-26.0 750.0,-52.0 765.0,-77.9 795.0,-77.9" fill="none" stroke="#45A3AB" stroke-width="0.9" opacity="0.10"/>
  <polygon points="810.0,0.0 795.0,26.0 765.0,26.0 750.0,0.0 765.0,-26.0 795.0,-26.0" fill="none" stroke="#45A3AB" stroke-width="0.9" opacity="0.10"/>
  <polygon points="810.0,52.0 795.0,77.9 765.0,77.9 750.0,52.0 765.0,26.0 795.0,26.0" fill="none" stroke="#45A3AB" stroke-width="0.9" opacity="0.10"/>
  <polygon points="810.0,103.9 795.0,129.9 765.0,129.9 750.0,103.9 765.0,77.9 795.0,77.9" fill="none" stroke="#45A3AB" stroke-width="0.9" opacity="0.10"/>
  <polygon points="810.0,155.9 795.0,181.9 765.0,181.9 750.0,155.9 765.0,129.9 795.0,129.9" fill="none" stroke="#45A3AB" stroke-width="0.9" opacity="0.10"/>
  <polygon points="855.0,-26.0 840.0,0.0 810.0,0.0 795.0,-26.0 810.0,-52.0 840.0,-52.0" fill="none" stroke="#45A3AB" stroke-width="0.9" opacity="0.09"/>
  <polygon points="855.0,26.0 840.0,52.0 810.0,52.0 795.0,26.0 810.0,0.0 840.0,0.0" fill="none" stroke="#45A3AB" stroke-width="0.9" opacity="0.09"/>
  <polygon points="855.0,77.9 840.0,103.9 810.0,103.9 795.0,77.9 810.0,52.0 840.0,52.0" fill="none" stroke="#45A3AB" stroke-width="0.9" opacity="0.09"/>
  <polygon points="855.0,129.9 840.0,155.9 810.0,155.9 795.0,129.9 810.0,103.9 840.0,103.9" fill="none" stroke="#45A3AB" stroke-width="0.9" opacity="0.09"/>
  <polygon points="900.0,-52.0 885.0,-26.0 855.0,-26.0 840.0,-52.0 855.0,-77.9 885.0,-77.9" fill="none" stroke="#45A3AB" stroke-width="0.9" opacity="0.07"/>
  <polygon points="900.0,0.0 885.0,26.0 855.0,26.0 840.0,0.0 855.0,-26.0 885.0,-26.0" fill="none" stroke="#45A3AB" stroke-width="0.9" opacity="0.07"/>
  <polygon points="900.0,52.0 885.0,77.9 855.0,77.9 840.0,52.0 855.0,26.0 885.0,26.0" fill="none" stroke="#45A3AB" stroke-width="0.9" opacity="0.07"/>
  <polygon points="900.0,103.9 885.0,129.9 855.0,129.9 840.0,103.9 855.0,77.9 885.0,77.9" fill="none" stroke="#45A3AB" stroke-width="0.9" opacity="0.07"/>
  <polygon points="900.0,155.9 885.0,181.9 855.0,181.9 840.0,155.9 855.0,129.9 885.0,129.9" fill="none" stroke="#45A3AB" stroke-width="0.9" opacity="0.07"/>
  <polygon points="945.0,-26.0 930.0,0.0 900.0,0.0 885.0,-26.0 900.0,-52.0 930.0,-52.0" fill="none" stroke="#45A3AB" stroke-width="0.9" opacity="0.06"/>
  <polygon points="945.0,26.0 930.0,52.0 900.0,52.0 885.0,26.0 900.0,0.0 930.0,0.0" fill="none" stroke="#45A3AB" stroke-width="0.9" opacity="0.06"/>
  <polygon points="945.0,77.9 930.0,103.9 900.0,103.9 885.0,77.9 900.0,52.0 930.0,52.0" fill="none" stroke="#45A3AB" stroke-width="0.9" opacity="0.06"/>
  <polygon points="945.0,129.9 930.0,155.9 900.0,155.9 885.0,129.9 900.0,103.9 930.0,103.9" fill="none" stroke="#45A3AB" stroke-width="0.9" opacity="0.06"/>
  <polygon points="990.0,-52.0 975.0,-26.0 945.0,-26.0 930.0,-52.0 945.0,-77.9 975.0,-77.9" fill="none" stroke="#45A3AB" stroke-width="0.9" opacity="0.04"/>
  <polygon points="990.0,0.0 975.0,26.0 945.0,26.0 930.0,0.0 945.0,-26.0 975.0,-26.0" fill="none" stroke="#45A3AB" stroke-width="0.9" opacity="0.04"/>
  <polygon points="990.0,52.0 975.0,77.9 945.0,77.9 930.0,52.0 945.0,26.0 975.0,26.0" fill="none" stroke="#45A3AB" stroke-width="0.9" opacity="0.04"/>
  <polygon points="990.0,103.9 975.0,129.9 945.0,129.9 930.0,103.9 945.0,77.9 975.0,77.9" fill="none" stroke="#45A3AB" stroke-width="0.9" opacity="0.04"/>
  <polygon points="990.0,155.9 975.0,181.9 945.0,181.9 930.0,155.9 945.0,129.9 975.0,129.9" fill="none" stroke="#45A3AB" stroke-width="0.9" opacity="0.04"/>
  <polygon points="1035.0,-26.0 1020.0,0.0 990.0,0.0 975.0,-26.0 990.0,-52.0 1020.0,-52.0" fill="none" stroke="#45A3AB" stroke-width="0.9" opacity="0.03"/>
  <polygon points="1035.0,26.0 1020.0,52.0 990.0,52.0 975.0,26.0 990.0,0.0 1020.0,0.0" fill="none" stroke="#45A3AB" stroke-width="0.9" opacity="0.03"/>
  <polygon points="1035.0,77.9 1020.0,103.9 990.0,103.9 975.0,77.9 990.0,52.0 1020.0,52.0" fill="none" stroke="#45A3AB" stroke-width="0.9" opacity="0.03"/>
  <polygon points="1035.0,129.9 1020.0,155.9 990.0,155.9 975.0,129.9 990.0,103.9 1020.0,103.9" fill="none" stroke="#45A3AB" stroke-width="0.9" opacity="0.03"/>

  <text x="0" y="100" font-family="'Segoe UI', 'Helvetica Neue', Arial, sans-serif" font-size="120" fill="url(#textGradDark)" letter-spacing="4">
    <tspan font-weight="700">Trust</tspan><tspan font-weight="300">odian</tspan>
  </text>

  <g transform="translate(330, 92) rotate(-15, 14, -7)">
    <path d="M8,0 L8,-7 C8,-14 12,-18 16,-18 C20,-18 24,-14 24,-7 L24,0"
          fill="none" stroke="#45A3AB" stroke-width="4.5" stroke-linecap="round"/>
    <rect x="4" y="-1.5" width="24" height="19" rx="3" fill="#45A3AB"/>
    <circle cx="16" cy="7.5" r="3.2" fill="#0D1A3A"/>
    <rect x="14.4" y="9" width="3.2" height="5" rx="1" fill="#0D1A3A"/>
  </g>
</svg>